%TF.GenerationSoftware,KiCad,Pcbnew,9.0.0*%
%TF.CreationDate,2026-05-10T12:45:32+02:00*%
%TF.ProjectId,KiCAD_project,4b694341-445f-4707-926f-6a6563742e6b,rev?*%
%TF.SameCoordinates,Original*%
%TF.FileFunction,Copper,L1,Top*%
%TF.FilePolarity,Positive*%
%FSLAX46Y46*%
G04 Gerber Fmt 4.6, Leading zero omitted, Abs format (unit mm)*
G04 Created by KiCad (PCBNEW 9.0.0) date 2026-05-10 12:45:32*
%MOMM*%
%LPD*%
G01*
G04 APERTURE LIST*
G04 Aperture macros list*
%AMRoundRect*
0 Rectangle with rounded corners*
0 $1 Rounding radius*
0 $2 $3 $4 $5 $6 $7 $8 $9 X,Y pos of 4 corners*
0 Add a 4 corners polygon primitive as box body*
4,1,4,$2,$3,$4,$5,$6,$7,$8,$9,$2,$3,0*
0 Add four circle primitives for the rounded corners*
1,1,$1+$1,$2,$3*
1,1,$1+$1,$4,$5*
1,1,$1+$1,$6,$7*
1,1,$1+$1,$8,$9*
0 Add four rect primitives between the rounded corners*
20,1,$1+$1,$2,$3,$4,$5,0*
20,1,$1+$1,$4,$5,$6,$7,0*
20,1,$1+$1,$6,$7,$8,$9,0*
20,1,$1+$1,$8,$9,$2,$3,0*%
G04 Aperture macros list end*
%TA.AperFunction,ComponentPad*%
%ADD10C,2.200000*%
%TD*%
%TA.AperFunction,ComponentPad*%
%ADD11RoundRect,0.250000X-0.550000X-0.550000X0.550000X-0.550000X0.550000X0.550000X-0.550000X0.550000X0*%
%TD*%
%TA.AperFunction,ComponentPad*%
%ADD12C,1.600000*%
%TD*%
%TA.AperFunction,ComponentPad*%
%ADD13R,2.000000X2.000000*%
%TD*%
%TA.AperFunction,ComponentPad*%
%ADD14C,2.000000*%
%TD*%
%TA.AperFunction,ComponentPad*%
%ADD15R,2.000000X3.200000*%
%TD*%
%TA.AperFunction,SMDPad,CuDef*%
%ADD16RoundRect,0.152400X1.063600X0.609600X-1.063600X0.609600X-1.063600X-0.609600X1.063600X-0.609600X0*%
%TD*%
%TA.AperFunction,ComponentPad*%
%ADD17C,1.524000*%
%TD*%
%TA.AperFunction,SMDPad,CuDef*%
%ADD18RoundRect,0.152400X-1.063600X-0.609600X1.063600X-0.609600X1.063600X0.609600X-1.063600X0.609600X0*%
%TD*%
%TA.AperFunction,ComponentPad*%
%ADD19R,1.600000X1.600000*%
%TD*%
%TA.AperFunction,ComponentPad*%
%ADD20O,1.600000X1.600000*%
%TD*%
%TA.AperFunction,ViaPad*%
%ADD21C,0.500000*%
%TD*%
%TA.AperFunction,ViaPad*%
%ADD22C,0.700000*%
%TD*%
%TA.AperFunction,ViaPad*%
%ADD23C,0.600000*%
%TD*%
%TA.AperFunction,Conductor*%
%ADD24C,0.250000*%
%TD*%
%TA.AperFunction,Conductor*%
%ADD25C,0.500000*%
%TD*%
G04 APERTURE END LIST*
D10*
%TO.P,SW8,1,1*%
%TO.N,COL3*%
X159338500Y-106895000D03*
%TO.P,SW8,2,2*%
%TO.N,Net-(D16-A)*%
X152988500Y-109435000D03*
%TD*%
%TO.P,SW7,1,1*%
%TO.N,COL3*%
X159338500Y-87845000D03*
%TO.P,SW7,2,2*%
%TO.N,Net-(D15-A)*%
X152988500Y-90385000D03*
%TD*%
%TO.P,SW4,1,1*%
%TO.N,COL2*%
X140288500Y-87845000D03*
%TO.P,SW4,2,2*%
%TO.N,Net-(D13-A)*%
X133938500Y-90385000D03*
%TD*%
D11*
%TO.P,U2,1*%
%TO.N,GND*%
X134230000Y-65560000D03*
D12*
%TO.P,U2,2*%
%TO.N,Net-(U1-GPIO1{slash}RX)*%
X134230000Y-68100000D03*
%TO.P,U2,3*%
%TO.N,Net-(D1-DIN)*%
X134230000Y-70640000D03*
%TO.P,U2,4*%
%TO.N,GND*%
X134230000Y-73180000D03*
%TO.P,U2,5*%
X134230000Y-75720000D03*
%TO.P,U2,6*%
%TO.N,unconnected-(U2-Pad6)*%
X134230000Y-78260000D03*
%TO.P,U2,7,GND*%
%TO.N,GND*%
X134230000Y-80800000D03*
%TO.P,U2,8*%
%TO.N,unconnected-(U2-Pad8)*%
X141850000Y-80800000D03*
%TO.P,U2,9*%
%TO.N,GND*%
X141850000Y-78260000D03*
%TO.P,U2,10*%
X141850000Y-75720000D03*
%TO.P,U2,11*%
%TO.N,unconnected-(U2-Pad11)*%
X141850000Y-73180000D03*
%TO.P,U2,12*%
%TO.N,GND*%
X141850000Y-70640000D03*
%TO.P,U2,13*%
X141850000Y-68100000D03*
%TO.P,U2,14,VCC*%
%TO.N,VBUS*%
X141850000Y-65560000D03*
%TD*%
D10*
%TO.P,SW9,1,1*%
%TO.N,COL3*%
X159338500Y-125945000D03*
%TO.P,SW9,2,2*%
%TO.N,Net-(D19-A)*%
X152988500Y-128485000D03*
%TD*%
%TO.P,SW3,1,1*%
%TO.N,COL1*%
X121238500Y-125945000D03*
%TO.P,SW3,2,2*%
%TO.N,Net-(D17-A)*%
X114888500Y-128485000D03*
%TD*%
%TO.P,SW5,1,1*%
%TO.N,COL2*%
X140238500Y-106895000D03*
%TO.P,SW5,2,2*%
%TO.N,Net-(D14-A)*%
X133888500Y-109435000D03*
%TD*%
%TO.P,SW6,1,1*%
%TO.N,COL2*%
X140288500Y-125945000D03*
%TO.P,SW6,2,2*%
%TO.N,Net-(D18-A)*%
X133938500Y-128485000D03*
%TD*%
D13*
%TO.P,SW10,A,A*%
%TO.N,Net-(U1-GPIO4{slash}MISO)*%
X159350000Y-66800000D03*
D14*
%TO.P,SW10,B,B*%
%TO.N,Net-(U1-GPIO3{slash}MOSI)*%
X154350000Y-66800000D03*
%TO.P,SW10,C,C*%
%TO.N,GND*%
X156850000Y-66800000D03*
D15*
%TO.P,SW10,MP*%
%TO.N,N/C*%
X162450000Y-74300000D03*
X151250000Y-74300000D03*
D14*
%TO.P,SW10,S1,S1*%
%TO.N,Net-(D20-A)*%
X154350000Y-81300000D03*
%TO.P,SW10,S2,S2*%
%TO.N,COL4*%
X159350000Y-81300000D03*
%TD*%
D16*
%TO.P,U1,1,GPIO26/ADC0/A0*%
%TO.N,ROW3*%
X109895000Y-64480000D03*
D17*
X110730000Y-64480000D03*
D16*
%TO.P,U1,2,GPIO27/ADC1/A1*%
%TO.N,ROW2*%
X109895000Y-67020000D03*
D17*
X110730000Y-67020000D03*
D16*
%TO.P,U1,3,GPIO28/ADC2/A2*%
%TO.N,ROW1*%
X109895000Y-69560000D03*
D17*
X110730000Y-69560000D03*
D16*
%TO.P,U1,4,GPIO29/ADC3/A3*%
%TO.N,unconnected-(U1-GPIO29{slash}ADC3{slash}A3-Pad4)*%
X109895000Y-72100000D03*
D17*
%TO.N,unconnected-(U1-GPIO29{slash}ADC3{slash}A3-Pad4)_1*%
X110730000Y-72100000D03*
D16*
%TO.P,U1,5,GPIO6/SDA*%
%TO.N,COL3*%
X109895000Y-74640000D03*
D17*
X110730000Y-74640000D03*
D16*
%TO.P,U1,6,GPIO7/SCL*%
%TO.N,COL2*%
X109895000Y-77180000D03*
D17*
X110730000Y-77180000D03*
D16*
%TO.P,U1,7,GPIO0/TX*%
%TO.N,COL1*%
X109895000Y-79720000D03*
D17*
X110730000Y-79720000D03*
%TO.P,U1,8,GPIO1/RX*%
%TO.N,Net-(U1-GPIO1{slash}RX)*%
X125970000Y-79720000D03*
D18*
X126805000Y-79720000D03*
D17*
%TO.P,U1,9,GPIO2/SCK*%
%TO.N,COL4*%
X125970000Y-77180000D03*
D18*
X126805000Y-77180000D03*
D17*
%TO.P,U1,10,GPIO4/MISO*%
%TO.N,Net-(U1-GPIO4{slash}MISO)*%
X125970000Y-74640000D03*
D18*
X126805000Y-74640000D03*
D17*
%TO.P,U1,11,GPIO3/MOSI*%
%TO.N,Net-(U1-GPIO3{slash}MOSI)*%
X125970000Y-72100000D03*
D18*
X126805000Y-72100000D03*
D17*
%TO.P,U1,12,3V3*%
%TO.N,unconnected-(U1-3V3-Pad12)*%
X125970000Y-69560000D03*
D18*
%TO.N,unconnected-(U1-3V3-Pad12)_1*%
X126805000Y-69560000D03*
D17*
%TO.P,U1,13,GND*%
%TO.N,GND*%
X125970000Y-67020000D03*
D18*
X126805000Y-67020000D03*
D17*
%TO.P,U1,14,VBUS*%
%TO.N,VBUS*%
X125970000Y-64480000D03*
D18*
X126805000Y-64480000D03*
%TD*%
D10*
%TO.P,SW2,1,1*%
%TO.N,COL1*%
X121238500Y-106905000D03*
%TO.P,SW2,2,2*%
%TO.N,Net-(D12-A)*%
X114888500Y-109445000D03*
%TD*%
%TO.P,SW1,1,1*%
%TO.N,COL1*%
X121238500Y-87845000D03*
%TO.P,SW1,2,2*%
%TO.N,Net-(D11-A)*%
X114888500Y-90385000D03*
%TD*%
D19*
%TO.P,D14,1,K*%
%TO.N,ROW2*%
X128250000Y-117210000D03*
D20*
%TO.P,D14,2,A*%
%TO.N,Net-(D14-A)*%
X128250000Y-109590000D03*
%TD*%
D19*
%TO.P,D13,1,K*%
%TO.N,ROW1*%
X128350000Y-98120000D03*
D20*
%TO.P,D13,2,A*%
%TO.N,Net-(D13-A)*%
X128350000Y-90500000D03*
%TD*%
D19*
%TO.P,D12,1,K*%
%TO.N,ROW2*%
X107800000Y-116910000D03*
D20*
%TO.P,D12,2,A*%
%TO.N,Net-(D12-A)*%
X107800000Y-109290000D03*
%TD*%
D19*
%TO.P,D15,1,K*%
%TO.N,ROW1*%
X147050000Y-84740000D03*
D20*
%TO.P,D15,2,A*%
%TO.N,Net-(D15-A)*%
X147050000Y-92360000D03*
%TD*%
D19*
%TO.P,D19,1,K*%
%TO.N,ROW3*%
X147400000Y-136220000D03*
D20*
%TO.P,D19,2,A*%
%TO.N,Net-(D19-A)*%
X147400000Y-128600000D03*
%TD*%
D19*
%TO.P,D18,1,K*%
%TO.N,ROW3*%
X128300000Y-136370000D03*
D20*
%TO.P,D18,2,A*%
%TO.N,Net-(D18-A)*%
X128300000Y-128750000D03*
%TD*%
D19*
%TO.P,D16,1,K*%
%TO.N,ROW2*%
X147350000Y-117110000D03*
D20*
%TO.P,D16,2,A*%
%TO.N,Net-(D16-A)*%
X147350000Y-109490000D03*
%TD*%
D19*
%TO.P,D17,1,K*%
%TO.N,ROW3*%
X107750000Y-136360000D03*
D20*
%TO.P,D17,2,A*%
%TO.N,Net-(D17-A)*%
X107750000Y-128740000D03*
%TD*%
D19*
%TO.P,D20,1,K*%
%TO.N,ROW1*%
X147050000Y-81410000D03*
D20*
%TO.P,D20,2,A*%
%TO.N,Net-(D20-A)*%
X147050000Y-73790000D03*
%TD*%
D19*
%TO.P,D11,1,K*%
%TO.N,ROW1*%
X107900000Y-97710000D03*
D20*
%TO.P,D11,2,A*%
%TO.N,Net-(D11-A)*%
X107900000Y-90090000D03*
%TD*%
D21*
%TO.N,ROW1*%
X140450000Y-93000000D03*
X121700000Y-97700000D03*
X119750000Y-97700000D03*
X143475000Y-90425000D03*
%TO.N,COL2*%
X140301814Y-120000000D03*
X142750000Y-98650000D03*
X141175000Y-100275000D03*
X134150000Y-83800000D03*
X140250000Y-117700000D03*
X131550000Y-83800000D03*
D22*
%TO.N,VBUS*%
X134750000Y-100550000D03*
X113950000Y-119800000D03*
X114650000Y-100650000D03*
X142600000Y-121050000D03*
D23*
X150550000Y-118300000D03*
X151900000Y-100650000D03*
D21*
%TO.N,Net-(U1-GPIO1{slash}RX)*%
X128450000Y-79720000D03*
X130700000Y-77750000D03*
%TO.N,Net-(D1-DIN)*%
X159138500Y-100450000D03*
%TO.N,Net-(D1-DOUT)*%
X152400000Y-103300000D03*
X142450000Y-101792158D03*
%TO.N,Net-(D2-DOUT)*%
X123050000Y-101700000D03*
X133050000Y-103300000D03*
%TO.N,Net-(D3-DOUT)*%
X121000000Y-117700000D03*
X116550000Y-104550000D03*
%TO.N,Net-(D4-DOUT)*%
X158300000Y-119300000D03*
X142950000Y-120300000D03*
%TD*%
D24*
%TO.N,Net-(D11-A)*%
X107900000Y-90090000D02*
X114593500Y-90090000D01*
X114593500Y-90090000D02*
X114888500Y-90385000D01*
%TO.N,ROW1*%
X106150000Y-97000000D02*
X106860000Y-97710000D01*
X122050000Y-97700000D02*
X122470000Y-98120000D01*
X147000000Y-84690000D02*
X147050000Y-84740000D01*
X147050000Y-81410000D02*
X147050000Y-84740000D01*
X106860000Y-97710000D02*
X107900000Y-97710000D01*
X122470000Y-98120000D02*
X128350000Y-98120000D01*
X107640000Y-69560000D02*
X106150000Y-71050000D01*
X143475000Y-90425000D02*
X147050000Y-86850000D01*
X140450000Y-93000000D02*
X140450000Y-95200000D01*
X129770000Y-96700000D02*
X128350000Y-98120000D01*
X121700000Y-97700000D02*
X122050000Y-97700000D01*
X147050000Y-86850000D02*
X147050000Y-84740000D01*
X107900000Y-97710000D02*
X119740000Y-97710000D01*
X138950000Y-96700000D02*
X129770000Y-96700000D01*
X110730000Y-69560000D02*
X107640000Y-69560000D01*
X119740000Y-97710000D02*
X119750000Y-97700000D01*
X106150000Y-71050000D02*
X106150000Y-97000000D01*
X140450000Y-95200000D02*
X138950000Y-96700000D01*
%TO.N,Net-(D12-A)*%
X111345000Y-109445000D02*
X114888500Y-109445000D01*
X111190000Y-109290000D02*
X111345000Y-109445000D01*
X107800000Y-109290000D02*
X111190000Y-109290000D01*
%TO.N,ROW2*%
X105600000Y-70600000D02*
X105600000Y-116600000D01*
X142261412Y-118274000D02*
X142261413Y-118274000D01*
X142261413Y-118274000D02*
X142738588Y-118274000D01*
X128250000Y-117210000D02*
X127010000Y-118450000D01*
X107800000Y-121200000D02*
X107800000Y-116910000D01*
X146186000Y-118274000D02*
X147350000Y-117110000D01*
X118650000Y-126550000D02*
X113150000Y-126550000D01*
X142738588Y-118274000D02*
X146186000Y-118274000D01*
X122500000Y-128300000D02*
X120400000Y-128300000D01*
X141885412Y-118650000D02*
X142261412Y-118274000D01*
X127010000Y-118450000D02*
X114200000Y-118450000D01*
X120400000Y-128300000D02*
X118650000Y-126550000D01*
X113350000Y-124400000D02*
X122650000Y-124400000D01*
X110730000Y-67020000D02*
X109180000Y-67020000D01*
X109180000Y-67020000D02*
X105600000Y-70600000D01*
X112400000Y-120250000D02*
X112400000Y-123450000D01*
X123700000Y-125450000D02*
X123700000Y-127100000D01*
X105910000Y-116910000D02*
X107800000Y-116910000D01*
X112400000Y-123450000D02*
X113350000Y-124400000D01*
X114200000Y-118450000D02*
X112400000Y-120250000D01*
X113150000Y-126550000D02*
X107800000Y-121200000D01*
X105600000Y-116600000D02*
X105910000Y-116910000D01*
X122650000Y-124400000D02*
X123700000Y-125450000D01*
X123700000Y-127100000D02*
X122500000Y-128300000D01*
X129690000Y-118650000D02*
X141885412Y-118650000D01*
X128250000Y-117210000D02*
X129690000Y-118650000D01*
%TO.N,Net-(D13-A)*%
X133938500Y-90385000D02*
X128465000Y-90385000D01*
X128465000Y-90385000D02*
X128350000Y-90500000D01*
%TO.N,Net-(D14-A)*%
X128250000Y-109590000D02*
X133733500Y-109590000D01*
X133733500Y-109590000D02*
X133888500Y-109435000D01*
%TO.N,Net-(D15-A)*%
X147050000Y-92360000D02*
X149025000Y-90385000D01*
X149025000Y-90385000D02*
X152988500Y-90385000D01*
%TO.N,Net-(D16-A)*%
X152933500Y-109490000D02*
X152988500Y-109435000D01*
X147350000Y-109490000D02*
X152933500Y-109490000D01*
%TO.N,Net-(D17-A)*%
X114733500Y-128640000D02*
X114888500Y-128485000D01*
X114888500Y-128485000D02*
X108005000Y-128485000D01*
X108005000Y-128485000D02*
X107750000Y-128740000D01*
%TO.N,ROW3*%
X109770000Y-64480000D02*
X105050000Y-69200000D01*
X110730000Y-64480000D02*
X109770000Y-64480000D01*
X128190000Y-136260000D02*
X128300000Y-136370000D01*
X107750000Y-136360000D02*
X128290000Y-136360000D01*
X128290000Y-136360000D02*
X128300000Y-136370000D01*
X147250000Y-136370000D02*
X147400000Y-136220000D01*
X128300000Y-136370000D02*
X147250000Y-136370000D01*
X105050000Y-135500000D02*
X105910000Y-136360000D01*
X105050000Y-69200000D02*
X105050000Y-135500000D01*
X105910000Y-136360000D02*
X107750000Y-136360000D01*
%TO.N,Net-(D20-A)*%
X150800000Y-81300000D02*
X154350000Y-81300000D01*
X147000000Y-77500000D02*
X150800000Y-81300000D01*
X147000000Y-73790000D02*
X147000000Y-77500000D01*
%TO.N,COL4*%
X159350000Y-73200000D02*
X162100000Y-70450000D01*
X157599000Y-61599000D02*
X124701000Y-61599000D01*
X122550000Y-63750000D02*
X122550000Y-75500000D01*
X162100000Y-70450000D02*
X162100000Y-66100000D01*
X124230000Y-77180000D02*
X125970000Y-77180000D01*
X162100000Y-66100000D02*
X157599000Y-61599000D01*
X122550000Y-75500000D02*
X124230000Y-77180000D01*
X159350000Y-81300000D02*
X159350000Y-73200000D01*
X124701000Y-61599000D02*
X122550000Y-63750000D01*
%TO.N,Net-(U1-GPIO3{slash}MOSI)*%
X123650000Y-64100000D02*
X125226000Y-62524000D01*
X150074000Y-62524000D02*
X154350000Y-66800000D01*
X123650000Y-71450000D02*
X123650000Y-64100000D01*
X124300000Y-72100000D02*
X123650000Y-71450000D01*
X125226000Y-62524000D02*
X150074000Y-62524000D01*
X126805000Y-72100000D02*
X124300000Y-72100000D01*
%TO.N,Net-(U1-GPIO4{slash}MISO)*%
X154600000Y-62050000D02*
X159350000Y-66800000D01*
X125970000Y-74640000D02*
X123050000Y-71720000D01*
X124950000Y-62050000D02*
X154600000Y-62050000D01*
X123050000Y-63950000D02*
X124950000Y-62050000D01*
X123050000Y-71720000D02*
X123050000Y-63950000D01*
%TO.N,Net-(D18-A)*%
X130950000Y-128500000D02*
X133923500Y-128500000D01*
X130700000Y-128750000D02*
X130950000Y-128500000D01*
X133923500Y-128500000D02*
X133938500Y-128485000D01*
X128300000Y-128750000D02*
X130700000Y-128750000D01*
%TO.N,Net-(D19-A)*%
X152873500Y-128600000D02*
X152988500Y-128485000D01*
X147400000Y-128600000D02*
X152873500Y-128600000D01*
%TO.N,COL1*%
X121238500Y-91538500D02*
X121950000Y-92250000D01*
X121238500Y-106905000D02*
X121238500Y-110138500D01*
X121750000Y-110650000D02*
X121750000Y-115150000D01*
X121238500Y-87845000D02*
X121238500Y-91538500D01*
X120000000Y-98400000D02*
X113300000Y-98400000D01*
X121750000Y-115150000D02*
X119200000Y-117700000D01*
X110730000Y-79720000D02*
X115220000Y-79720000D01*
X111750000Y-119600000D02*
X111750000Y-124150000D01*
X121950000Y-92250000D02*
X121950000Y-96450000D01*
X109895000Y-79720000D02*
X110730000Y-79720000D01*
X114505000Y-106905000D02*
X121238500Y-106905000D01*
X113650000Y-117700000D02*
X111750000Y-119600000D01*
X121238500Y-110138500D02*
X121750000Y-110650000D01*
X119200000Y-117700000D02*
X113650000Y-117700000D01*
X113545000Y-125945000D02*
X121238500Y-125945000D01*
X111750000Y-124150000D02*
X113545000Y-125945000D01*
X121238500Y-87845000D02*
X121238500Y-85738500D01*
X121238500Y-85738500D02*
X115220000Y-79720000D01*
X121950000Y-96450000D02*
X120000000Y-98400000D01*
X111950000Y-99750000D02*
X111950000Y-104350000D01*
X113300000Y-98400000D02*
X111950000Y-99750000D01*
X111950000Y-104350000D02*
X114505000Y-106905000D01*
%TO.N,COL2*%
X120600000Y-83800000D02*
X113980000Y-77180000D01*
X144300000Y-92150000D02*
X144300000Y-94000000D01*
X143650000Y-91500000D02*
X144300000Y-92150000D01*
X144300000Y-94000000D02*
X144300000Y-97100000D01*
X144300000Y-97100000D02*
X142750000Y-98650000D01*
X140288500Y-90338500D02*
X141350000Y-91400000D01*
X141450000Y-91500000D02*
X143650000Y-91500000D01*
X113980000Y-77180000D02*
X110730000Y-77180000D01*
X141350000Y-91400000D02*
X141450000Y-91500000D01*
X131550000Y-83800000D02*
X120600000Y-83800000D01*
X140288500Y-87845000D02*
X140288500Y-90338500D01*
X140301814Y-120000000D02*
X141050000Y-120748186D01*
X140238500Y-117688500D02*
X140250000Y-117700000D01*
X140288500Y-85638500D02*
X140288500Y-87845000D01*
X138450000Y-83800000D02*
X140288500Y-85638500D01*
X134150000Y-83800000D02*
X138450000Y-83800000D01*
X141050000Y-120748186D02*
X141050000Y-125183500D01*
X141175000Y-100275000D02*
X140238500Y-101211500D01*
X140238500Y-101211500D02*
X140238500Y-106895000D01*
X141050000Y-125183500D02*
X140288500Y-125945000D01*
X140238500Y-106895000D02*
X140238500Y-117688500D01*
%TO.N,COL3*%
X161345000Y-87845000D02*
X159338500Y-87845000D01*
X163800000Y-108950000D02*
X161745000Y-106895000D01*
X159300000Y-61150000D02*
X124400000Y-61150000D01*
X121900000Y-63650000D02*
X121900000Y-70800000D01*
X163800000Y-90300000D02*
X161345000Y-87845000D01*
X162255000Y-125945000D02*
X163800000Y-124400000D01*
X159338500Y-87845000D02*
X164350000Y-82833500D01*
X164350000Y-66200000D02*
X159300000Y-61150000D01*
X161955000Y-106895000D02*
X163800000Y-105050000D01*
X161745000Y-106895000D02*
X159338500Y-106895000D01*
X164350000Y-82833500D02*
X164350000Y-66200000D01*
X159338500Y-125945000D02*
X162255000Y-125945000D01*
X163800000Y-105050000D02*
X163800000Y-90300000D01*
X159338500Y-106895000D02*
X161955000Y-106895000D01*
X118060000Y-74640000D02*
X110730000Y-74640000D01*
X163800000Y-124400000D02*
X163800000Y-108950000D01*
X121900000Y-70800000D02*
X118060000Y-74640000D01*
X124400000Y-61150000D02*
X121900000Y-63650000D01*
%TO.N,GND*%
X125970000Y-67020000D02*
X126805000Y-67020000D01*
D25*
%TO.N,VBUS*%
X151900000Y-100650000D02*
X151900000Y-100344000D01*
X114450000Y-119300000D02*
X142050000Y-119300000D01*
X149650000Y-117400000D02*
X149650000Y-114113054D01*
X141600000Y-106063054D02*
X141600000Y-101050000D01*
X149050000Y-118850000D02*
X149650000Y-118250000D01*
X142250000Y-120700000D02*
X142250000Y-119500000D01*
X142750000Y-99900000D02*
X141250000Y-98400000D01*
X141250000Y-92300000D02*
X129543200Y-80593200D01*
X141250000Y-98400000D02*
X141250000Y-97500000D01*
X149650000Y-114113054D02*
X141600000Y-106063054D01*
X141250000Y-97500000D02*
X141250000Y-92300000D01*
X142600000Y-121050000D02*
X142250000Y-120700000D01*
X129543200Y-64480000D02*
X130523200Y-63500000D01*
X151900000Y-100344000D02*
X151456000Y-99900000D01*
X115400000Y-99900000D02*
X114650000Y-100650000D01*
X129543200Y-80593200D02*
X129543200Y-64480000D01*
X134750000Y-100550000D02*
X137000000Y-98300000D01*
X125970000Y-64480000D02*
X129543200Y-64480000D01*
X151456000Y-99900000D02*
X142750000Y-99900000D01*
X134100000Y-99900000D02*
X115400000Y-99900000D01*
X149650000Y-118250000D02*
X149650000Y-117400000D01*
X140450000Y-98300000D02*
X141250000Y-97500000D01*
X113950000Y-119800000D02*
X114450000Y-119300000D01*
X142500000Y-118850000D02*
X149050000Y-118850000D01*
X150550000Y-118300000D02*
X149650000Y-117400000D01*
X142050000Y-119300000D02*
X142500000Y-118850000D01*
X141600000Y-101050000D02*
X142750000Y-99900000D01*
X130523200Y-63500000D02*
X137250000Y-63500000D01*
X134750000Y-100550000D02*
X134100000Y-99900000D01*
X137000000Y-98300000D02*
X140450000Y-98300000D01*
X139310000Y-65560000D02*
X141850000Y-65560000D01*
X137250000Y-63500000D02*
X139310000Y-65560000D01*
X142250000Y-119500000D02*
X142050000Y-119300000D01*
D24*
%TO.N,Net-(U1-GPIO1{slash}RX)*%
X130700000Y-77750000D02*
X130700000Y-70450000D01*
X126835000Y-79750000D02*
X126805000Y-79720000D01*
X130700000Y-70450000D02*
X133050000Y-68100000D01*
X128450000Y-79720000D02*
X125970000Y-79720000D01*
X125970000Y-79720000D02*
X126805000Y-79720000D01*
X133050000Y-68100000D02*
X134230000Y-68100000D01*
%TO.N,Net-(D1-DIN)*%
X159850000Y-91550000D02*
X142810025Y-74510025D01*
X140060025Y-74510025D02*
X136190000Y-70640000D01*
X136190000Y-70640000D02*
X134230000Y-70640000D01*
X159850000Y-99250000D02*
X159850000Y-91550000D01*
X159138500Y-99961500D02*
X159850000Y-99250000D01*
X142810025Y-74510025D02*
X140060025Y-74510025D01*
X159138500Y-100450000D02*
X159138500Y-99961500D01*
%TO.N,Net-(D1-DOUT)*%
X143342158Y-101792158D02*
X144850000Y-103300000D01*
X142450000Y-101792158D02*
X143342158Y-101792158D01*
X144850000Y-103300000D02*
X152400000Y-103300000D01*
%TO.N,Net-(D2-DOUT)*%
X133050000Y-103300000D02*
X129200000Y-103300000D01*
X127600000Y-101700000D02*
X123050000Y-101700000D01*
X129200000Y-103300000D02*
X127600000Y-101700000D01*
%TO.N,Net-(D3-DOUT)*%
X122552500Y-108797500D02*
X122552500Y-116147500D01*
X116550000Y-104550000D02*
X116950000Y-104950000D01*
X123550000Y-105800000D02*
X123550000Y-107800000D01*
X122552500Y-116147500D02*
X121000000Y-117700000D01*
X123550000Y-107800000D02*
X122552500Y-108797500D01*
X122700000Y-104950000D02*
X123550000Y-105800000D01*
X116950000Y-104950000D02*
X122700000Y-104950000D01*
%TO.N,Net-(D4-DOUT)*%
X151450000Y-120300000D02*
X152450000Y-119300000D01*
X142950000Y-120300000D02*
X151450000Y-120300000D01*
X152450000Y-119300000D02*
X158300000Y-119300000D01*
%TD*%
M02*
