%TF.GenerationSoftware,KiCad,Pcbnew,9.0.0*%
%TF.CreationDate,2026-05-10T12:45:30+02:00*%
%TF.ProjectId,KiCAD_project,4b694341-445f-4707-926f-6a6563742e6b,rev?*%
%TF.SameCoordinates,Original*%
%TF.FileFunction,Plated,1,2,PTH,Mixed*%
%TF.FilePolarity,Positive*%
%FSLAX46Y46*%
G04 Gerber Fmt 4.6, Leading zero omitted, Abs format (unit mm)*
G04 Created by KiCad (PCBNEW 9.0.0) date 2026-05-10 12:45:30*
%MOMM*%
%LPD*%
G01*
G04 APERTURE LIST*
%TA.AperFunction,ViaDrill*%
%ADD10C,0.300000*%
%TD*%
%TA.AperFunction,ViaDrill*%
%ADD11C,0.400000*%
%TD*%
%TA.AperFunction,ComponentDrill*%
%ADD12C,0.800000*%
%TD*%
%TA.AperFunction,ComponentDrill*%
%ADD13C,0.889000*%
%TD*%
%TA.AperFunction,ComponentDrill*%
%ADD14C,1.000000*%
%TD*%
%TA.AperFunction,ComponentDrill*%
%ADD15C,1.500000*%
%TD*%
G04 aperture for slot hole*
%TA.AperFunction,ComponentDrill*%
%ADD16C,1.500000*%
%TD*%
G04 APERTURE END LIST*
D10*
X116550000Y-104550000D03*
X119750000Y-97700000D03*
X121000000Y-117700000D03*
X121700000Y-97700000D03*
X123050000Y-101700000D03*
X128450000Y-79720000D03*
X130700000Y-77750000D03*
X131550000Y-83800000D03*
X133050000Y-103300000D03*
X134150000Y-83800000D03*
X140250000Y-117700000D03*
X140301814Y-120000000D03*
X140450000Y-93000000D03*
X141175000Y-100275000D03*
X142450000Y-101792158D03*
X142750000Y-98650000D03*
X142950000Y-120300000D03*
X143475000Y-90425000D03*
X150550000Y-118300000D03*
X151900000Y-100650000D03*
X152400000Y-103300000D03*
X158300000Y-119300000D03*
X159138500Y-100450000D03*
D11*
X113950000Y-119800000D03*
X114650000Y-100650000D03*
X134750000Y-100550000D03*
X142600000Y-121050000D03*
D12*
%TO.C,D17*%
X107750000Y-128740000D03*
X107750000Y-136360000D03*
%TO.C,D12*%
X107800000Y-109290000D03*
X107800000Y-116910000D03*
%TO.C,D11*%
X107900000Y-90090000D03*
X107900000Y-97710000D03*
%TO.C,D14*%
X128250000Y-109590000D03*
X128250000Y-117210000D03*
%TO.C,D18*%
X128300000Y-128750000D03*
X128300000Y-136370000D03*
%TO.C,D13*%
X128350000Y-90500000D03*
X128350000Y-98120000D03*
%TO.C,U2*%
X134230000Y-65560000D03*
X134230000Y-68100000D03*
X134230000Y-70640000D03*
X134230000Y-73180000D03*
X134230000Y-75720000D03*
X134230000Y-78260000D03*
X134230000Y-80800000D03*
X141850000Y-65560000D03*
X141850000Y-68100000D03*
X141850000Y-70640000D03*
X141850000Y-73180000D03*
X141850000Y-75720000D03*
X141850000Y-78260000D03*
X141850000Y-80800000D03*
%TO.C,D20*%
X147050000Y-73790000D03*
X147050000Y-81410000D03*
%TO.C,D15*%
X147050000Y-84740000D03*
X147050000Y-92360000D03*
%TO.C,D16*%
X147350000Y-109490000D03*
X147350000Y-117110000D03*
%TO.C,D19*%
X147400000Y-128600000D03*
X147400000Y-136220000D03*
D13*
%TO.C,U1*%
X110730000Y-64480000D03*
X110730000Y-67020000D03*
X110730000Y-69560000D03*
X110730000Y-72100000D03*
X110730000Y-74640000D03*
X110730000Y-77180000D03*
X110730000Y-79720000D03*
X125970000Y-64480000D03*
X125970000Y-67020000D03*
X125970000Y-69560000D03*
X125970000Y-72100000D03*
X125970000Y-74640000D03*
X125970000Y-77180000D03*
X125970000Y-79720000D03*
D14*
%TO.C,SW10*%
X154350000Y-66800000D03*
X154350000Y-81300000D03*
X156850000Y-66800000D03*
X159350000Y-66800000D03*
X159350000Y-81300000D03*
D15*
%TO.C,SW1*%
X114888500Y-90385000D03*
%TO.C,SW2*%
X114888500Y-109445000D03*
%TO.C,SW3*%
X114888500Y-128485000D03*
%TO.C,SW1*%
X121238500Y-87845000D03*
%TO.C,SW2*%
X121238500Y-106905000D03*
%TO.C,SW3*%
X121238500Y-125945000D03*
%TO.C,SW5*%
X133888500Y-109435000D03*
%TO.C,SW4*%
X133938500Y-90385000D03*
%TO.C,SW6*%
X133938500Y-128485000D03*
%TO.C,SW5*%
X140238500Y-106895000D03*
%TO.C,SW4*%
X140288500Y-87845000D03*
%TO.C,SW6*%
X140288500Y-125945000D03*
D16*
%TO.C,SW10*%
X151250000Y-74950000D02*
X151250000Y-73650000D01*
D15*
%TO.C,SW7*%
X152988500Y-90385000D03*
%TO.C,SW8*%
X152988500Y-109435000D03*
%TO.C,SW9*%
X152988500Y-128485000D03*
%TO.C,SW7*%
X159338500Y-87845000D03*
%TO.C,SW8*%
X159338500Y-106895000D03*
%TO.C,SW9*%
X159338500Y-125945000D03*
D16*
%TO.C,SW10*%
X162450000Y-74950000D02*
X162450000Y-73650000D01*
M02*
