%TF.GenerationSoftware,KiCad,Pcbnew,9.0.0*%
%TF.CreationDate,2026-05-10T12:45:32+02:00*%
%TF.ProjectId,KiCAD_project,4b694341-445f-4707-926f-6a6563742e6b,rev?*%
%TF.SameCoordinates,Original*%
%TF.FileFunction,Legend,Bot*%
%TF.FilePolarity,Positive*%
%FSLAX46Y46*%
G04 Gerber Fmt 4.6, Leading zero omitted, Abs format (unit mm)*
G04 Created by KiCad (PCBNEW 9.0.0) date 2026-05-10 12:45:32*
%MOMM*%
%LPD*%
G01*
G04 APERTURE LIST*
%ADD10C,0.150000*%
%ADD11C,0.100000*%
%ADD12C,0.120000*%
G04 APERTURE END LIST*
D10*
X132066666Y-100779580D02*
X132114285Y-100827200D01*
X132114285Y-100827200D02*
X132257142Y-100874819D01*
X132257142Y-100874819D02*
X132352380Y-100874819D01*
X132352380Y-100874819D02*
X132495237Y-100827200D01*
X132495237Y-100827200D02*
X132590475Y-100731961D01*
X132590475Y-100731961D02*
X132638094Y-100636723D01*
X132638094Y-100636723D02*
X132685713Y-100446247D01*
X132685713Y-100446247D02*
X132685713Y-100303390D01*
X132685713Y-100303390D02*
X132638094Y-100112914D01*
X132638094Y-100112914D02*
X132590475Y-100017676D01*
X132590475Y-100017676D02*
X132495237Y-99922438D01*
X132495237Y-99922438D02*
X132352380Y-99874819D01*
X132352380Y-99874819D02*
X132257142Y-99874819D01*
X132257142Y-99874819D02*
X132114285Y-99922438D01*
X132114285Y-99922438D02*
X132066666Y-99970057D01*
X131685713Y-99970057D02*
X131638094Y-99922438D01*
X131638094Y-99922438D02*
X131542856Y-99874819D01*
X131542856Y-99874819D02*
X131304761Y-99874819D01*
X131304761Y-99874819D02*
X131209523Y-99922438D01*
X131209523Y-99922438D02*
X131161904Y-99970057D01*
X131161904Y-99970057D02*
X131114285Y-100065295D01*
X131114285Y-100065295D02*
X131114285Y-100160533D01*
X131114285Y-100160533D02*
X131161904Y-100303390D01*
X131161904Y-100303390D02*
X131733332Y-100874819D01*
X131733332Y-100874819D02*
X131114285Y-100874819D01*
X143516666Y-124339580D02*
X143564285Y-124387200D01*
X143564285Y-124387200D02*
X143707142Y-124434819D01*
X143707142Y-124434819D02*
X143802380Y-124434819D01*
X143802380Y-124434819D02*
X143945237Y-124387200D01*
X143945237Y-124387200D02*
X144040475Y-124291961D01*
X144040475Y-124291961D02*
X144088094Y-124196723D01*
X144088094Y-124196723D02*
X144135713Y-124006247D01*
X144135713Y-124006247D02*
X144135713Y-123863390D01*
X144135713Y-123863390D02*
X144088094Y-123672914D01*
X144088094Y-123672914D02*
X144040475Y-123577676D01*
X144040475Y-123577676D02*
X143945237Y-123482438D01*
X143945237Y-123482438D02*
X143802380Y-123434819D01*
X143802380Y-123434819D02*
X143707142Y-123434819D01*
X143707142Y-123434819D02*
X143564285Y-123482438D01*
X143564285Y-123482438D02*
X143516666Y-123530057D01*
X142611904Y-123434819D02*
X143088094Y-123434819D01*
X143088094Y-123434819D02*
X143135713Y-123911009D01*
X143135713Y-123911009D02*
X143088094Y-123863390D01*
X143088094Y-123863390D02*
X142992856Y-123815771D01*
X142992856Y-123815771D02*
X142754761Y-123815771D01*
X142754761Y-123815771D02*
X142659523Y-123863390D01*
X142659523Y-123863390D02*
X142611904Y-123911009D01*
X142611904Y-123911009D02*
X142564285Y-124006247D01*
X142564285Y-124006247D02*
X142564285Y-124244342D01*
X142564285Y-124244342D02*
X142611904Y-124339580D01*
X142611904Y-124339580D02*
X142659523Y-124387200D01*
X142659523Y-124387200D02*
X142754761Y-124434819D01*
X142754761Y-124434819D02*
X142992856Y-124434819D01*
X142992856Y-124434819D02*
X143088094Y-124387200D01*
X143088094Y-124387200D02*
X143135713Y-124339580D01*
X114016666Y-103609580D02*
X114064285Y-103657200D01*
X114064285Y-103657200D02*
X114207142Y-103704819D01*
X114207142Y-103704819D02*
X114302380Y-103704819D01*
X114302380Y-103704819D02*
X114445237Y-103657200D01*
X114445237Y-103657200D02*
X114540475Y-103561961D01*
X114540475Y-103561961D02*
X114588094Y-103466723D01*
X114588094Y-103466723D02*
X114635713Y-103276247D01*
X114635713Y-103276247D02*
X114635713Y-103133390D01*
X114635713Y-103133390D02*
X114588094Y-102942914D01*
X114588094Y-102942914D02*
X114540475Y-102847676D01*
X114540475Y-102847676D02*
X114445237Y-102752438D01*
X114445237Y-102752438D02*
X114302380Y-102704819D01*
X114302380Y-102704819D02*
X114207142Y-102704819D01*
X114207142Y-102704819D02*
X114064285Y-102752438D01*
X114064285Y-102752438D02*
X114016666Y-102800057D01*
X113683332Y-102704819D02*
X113064285Y-102704819D01*
X113064285Y-102704819D02*
X113397618Y-103085771D01*
X113397618Y-103085771D02*
X113254761Y-103085771D01*
X113254761Y-103085771D02*
X113159523Y-103133390D01*
X113159523Y-103133390D02*
X113111904Y-103181009D01*
X113111904Y-103181009D02*
X113064285Y-103276247D01*
X113064285Y-103276247D02*
X113064285Y-103514342D01*
X113064285Y-103514342D02*
X113111904Y-103609580D01*
X113111904Y-103609580D02*
X113159523Y-103657200D01*
X113159523Y-103657200D02*
X113254761Y-103704819D01*
X113254761Y-103704819D02*
X113540475Y-103704819D01*
X113540475Y-103704819D02*
X113635713Y-103657200D01*
X113635713Y-103657200D02*
X113683332Y-103609580D01*
X130824819Y-112185714D02*
X129824819Y-112185714D01*
X129824819Y-112185714D02*
X129824819Y-112423809D01*
X129824819Y-112423809D02*
X129872438Y-112566666D01*
X129872438Y-112566666D02*
X129967676Y-112661904D01*
X129967676Y-112661904D02*
X130062914Y-112709523D01*
X130062914Y-112709523D02*
X130253390Y-112757142D01*
X130253390Y-112757142D02*
X130396247Y-112757142D01*
X130396247Y-112757142D02*
X130586723Y-112709523D01*
X130586723Y-112709523D02*
X130681961Y-112661904D01*
X130681961Y-112661904D02*
X130777200Y-112566666D01*
X130777200Y-112566666D02*
X130824819Y-112423809D01*
X130824819Y-112423809D02*
X130824819Y-112185714D01*
X130824819Y-113709523D02*
X130824819Y-113138095D01*
X130824819Y-113423809D02*
X129824819Y-113423809D01*
X129824819Y-113423809D02*
X129967676Y-113328571D01*
X129967676Y-113328571D02*
X130062914Y-113233333D01*
X130062914Y-113233333D02*
X130110533Y-113138095D01*
X130158152Y-114566666D02*
X130824819Y-114566666D01*
X129777200Y-114328571D02*
X130491485Y-114090476D01*
X130491485Y-114090476D02*
X130491485Y-114709523D01*
X130504819Y-116948095D02*
X129504819Y-116948095D01*
X130504819Y-117519523D02*
X129933390Y-117090952D01*
X129504819Y-117519523D02*
X130076247Y-116948095D01*
X130924819Y-93095714D02*
X129924819Y-93095714D01*
X129924819Y-93095714D02*
X129924819Y-93333809D01*
X129924819Y-93333809D02*
X129972438Y-93476666D01*
X129972438Y-93476666D02*
X130067676Y-93571904D01*
X130067676Y-93571904D02*
X130162914Y-93619523D01*
X130162914Y-93619523D02*
X130353390Y-93667142D01*
X130353390Y-93667142D02*
X130496247Y-93667142D01*
X130496247Y-93667142D02*
X130686723Y-93619523D01*
X130686723Y-93619523D02*
X130781961Y-93571904D01*
X130781961Y-93571904D02*
X130877200Y-93476666D01*
X130877200Y-93476666D02*
X130924819Y-93333809D01*
X130924819Y-93333809D02*
X130924819Y-93095714D01*
X130924819Y-94619523D02*
X130924819Y-94048095D01*
X130924819Y-94333809D02*
X129924819Y-94333809D01*
X129924819Y-94333809D02*
X130067676Y-94238571D01*
X130067676Y-94238571D02*
X130162914Y-94143333D01*
X130162914Y-94143333D02*
X130210533Y-94048095D01*
X129924819Y-94952857D02*
X129924819Y-95571904D01*
X129924819Y-95571904D02*
X130305771Y-95238571D01*
X130305771Y-95238571D02*
X130305771Y-95381428D01*
X130305771Y-95381428D02*
X130353390Y-95476666D01*
X130353390Y-95476666D02*
X130401009Y-95524285D01*
X130401009Y-95524285D02*
X130496247Y-95571904D01*
X130496247Y-95571904D02*
X130734342Y-95571904D01*
X130734342Y-95571904D02*
X130829580Y-95524285D01*
X130829580Y-95524285D02*
X130877200Y-95476666D01*
X130877200Y-95476666D02*
X130924819Y-95381428D01*
X130924819Y-95381428D02*
X130924819Y-95095714D01*
X130924819Y-95095714D02*
X130877200Y-95000476D01*
X130877200Y-95000476D02*
X130829580Y-94952857D01*
X130604819Y-97858095D02*
X129604819Y-97858095D01*
X130604819Y-98429523D02*
X130033390Y-98000952D01*
X129604819Y-98429523D02*
X130176247Y-97858095D01*
X110374819Y-111885714D02*
X109374819Y-111885714D01*
X109374819Y-111885714D02*
X109374819Y-112123809D01*
X109374819Y-112123809D02*
X109422438Y-112266666D01*
X109422438Y-112266666D02*
X109517676Y-112361904D01*
X109517676Y-112361904D02*
X109612914Y-112409523D01*
X109612914Y-112409523D02*
X109803390Y-112457142D01*
X109803390Y-112457142D02*
X109946247Y-112457142D01*
X109946247Y-112457142D02*
X110136723Y-112409523D01*
X110136723Y-112409523D02*
X110231961Y-112361904D01*
X110231961Y-112361904D02*
X110327200Y-112266666D01*
X110327200Y-112266666D02*
X110374819Y-112123809D01*
X110374819Y-112123809D02*
X110374819Y-111885714D01*
X110374819Y-113409523D02*
X110374819Y-112838095D01*
X110374819Y-113123809D02*
X109374819Y-113123809D01*
X109374819Y-113123809D02*
X109517676Y-113028571D01*
X109517676Y-113028571D02*
X109612914Y-112933333D01*
X109612914Y-112933333D02*
X109660533Y-112838095D01*
X109470057Y-113790476D02*
X109422438Y-113838095D01*
X109422438Y-113838095D02*
X109374819Y-113933333D01*
X109374819Y-113933333D02*
X109374819Y-114171428D01*
X109374819Y-114171428D02*
X109422438Y-114266666D01*
X109422438Y-114266666D02*
X109470057Y-114314285D01*
X109470057Y-114314285D02*
X109565295Y-114361904D01*
X109565295Y-114361904D02*
X109660533Y-114361904D01*
X109660533Y-114361904D02*
X109803390Y-114314285D01*
X109803390Y-114314285D02*
X110374819Y-113742857D01*
X110374819Y-113742857D02*
X110374819Y-114361904D01*
X110054819Y-116648095D02*
X109054819Y-116648095D01*
X110054819Y-117219523D02*
X109483390Y-116790952D01*
X109054819Y-117219523D02*
X109626247Y-116648095D01*
X145384819Y-87335714D02*
X144384819Y-87335714D01*
X144384819Y-87335714D02*
X144384819Y-87573809D01*
X144384819Y-87573809D02*
X144432438Y-87716666D01*
X144432438Y-87716666D02*
X144527676Y-87811904D01*
X144527676Y-87811904D02*
X144622914Y-87859523D01*
X144622914Y-87859523D02*
X144813390Y-87907142D01*
X144813390Y-87907142D02*
X144956247Y-87907142D01*
X144956247Y-87907142D02*
X145146723Y-87859523D01*
X145146723Y-87859523D02*
X145241961Y-87811904D01*
X145241961Y-87811904D02*
X145337200Y-87716666D01*
X145337200Y-87716666D02*
X145384819Y-87573809D01*
X145384819Y-87573809D02*
X145384819Y-87335714D01*
X145384819Y-88859523D02*
X145384819Y-88288095D01*
X145384819Y-88573809D02*
X144384819Y-88573809D01*
X144384819Y-88573809D02*
X144527676Y-88478571D01*
X144527676Y-88478571D02*
X144622914Y-88383333D01*
X144622914Y-88383333D02*
X144670533Y-88288095D01*
X144384819Y-89764285D02*
X144384819Y-89288095D01*
X144384819Y-89288095D02*
X144861009Y-89240476D01*
X144861009Y-89240476D02*
X144813390Y-89288095D01*
X144813390Y-89288095D02*
X144765771Y-89383333D01*
X144765771Y-89383333D02*
X144765771Y-89621428D01*
X144765771Y-89621428D02*
X144813390Y-89716666D01*
X144813390Y-89716666D02*
X144861009Y-89764285D01*
X144861009Y-89764285D02*
X144956247Y-89811904D01*
X144956247Y-89811904D02*
X145194342Y-89811904D01*
X145194342Y-89811904D02*
X145289580Y-89764285D01*
X145289580Y-89764285D02*
X145337200Y-89716666D01*
X145337200Y-89716666D02*
X145384819Y-89621428D01*
X145384819Y-89621428D02*
X145384819Y-89383333D01*
X145384819Y-89383333D02*
X145337200Y-89288095D01*
X145337200Y-89288095D02*
X145289580Y-89240476D01*
X145704819Y-84478095D02*
X144704819Y-84478095D01*
X145704819Y-85049523D02*
X145133390Y-84620952D01*
X144704819Y-85049523D02*
X145276247Y-84478095D01*
X149974819Y-131195714D02*
X148974819Y-131195714D01*
X148974819Y-131195714D02*
X148974819Y-131433809D01*
X148974819Y-131433809D02*
X149022438Y-131576666D01*
X149022438Y-131576666D02*
X149117676Y-131671904D01*
X149117676Y-131671904D02*
X149212914Y-131719523D01*
X149212914Y-131719523D02*
X149403390Y-131767142D01*
X149403390Y-131767142D02*
X149546247Y-131767142D01*
X149546247Y-131767142D02*
X149736723Y-131719523D01*
X149736723Y-131719523D02*
X149831961Y-131671904D01*
X149831961Y-131671904D02*
X149927200Y-131576666D01*
X149927200Y-131576666D02*
X149974819Y-131433809D01*
X149974819Y-131433809D02*
X149974819Y-131195714D01*
X149974819Y-132719523D02*
X149974819Y-132148095D01*
X149974819Y-132433809D02*
X148974819Y-132433809D01*
X148974819Y-132433809D02*
X149117676Y-132338571D01*
X149117676Y-132338571D02*
X149212914Y-132243333D01*
X149212914Y-132243333D02*
X149260533Y-132148095D01*
X149974819Y-133195714D02*
X149974819Y-133386190D01*
X149974819Y-133386190D02*
X149927200Y-133481428D01*
X149927200Y-133481428D02*
X149879580Y-133529047D01*
X149879580Y-133529047D02*
X149736723Y-133624285D01*
X149736723Y-133624285D02*
X149546247Y-133671904D01*
X149546247Y-133671904D02*
X149165295Y-133671904D01*
X149165295Y-133671904D02*
X149070057Y-133624285D01*
X149070057Y-133624285D02*
X149022438Y-133576666D01*
X149022438Y-133576666D02*
X148974819Y-133481428D01*
X148974819Y-133481428D02*
X148974819Y-133290952D01*
X148974819Y-133290952D02*
X149022438Y-133195714D01*
X149022438Y-133195714D02*
X149070057Y-133148095D01*
X149070057Y-133148095D02*
X149165295Y-133100476D01*
X149165295Y-133100476D02*
X149403390Y-133100476D01*
X149403390Y-133100476D02*
X149498628Y-133148095D01*
X149498628Y-133148095D02*
X149546247Y-133195714D01*
X149546247Y-133195714D02*
X149593866Y-133290952D01*
X149593866Y-133290952D02*
X149593866Y-133481428D01*
X149593866Y-133481428D02*
X149546247Y-133576666D01*
X149546247Y-133576666D02*
X149498628Y-133624285D01*
X149498628Y-133624285D02*
X149403390Y-133671904D01*
X149654819Y-135958095D02*
X148654819Y-135958095D01*
X149654819Y-136529523D02*
X149083390Y-136100952D01*
X148654819Y-136529523D02*
X149226247Y-135958095D01*
X130874819Y-131345714D02*
X129874819Y-131345714D01*
X129874819Y-131345714D02*
X129874819Y-131583809D01*
X129874819Y-131583809D02*
X129922438Y-131726666D01*
X129922438Y-131726666D02*
X130017676Y-131821904D01*
X130017676Y-131821904D02*
X130112914Y-131869523D01*
X130112914Y-131869523D02*
X130303390Y-131917142D01*
X130303390Y-131917142D02*
X130446247Y-131917142D01*
X130446247Y-131917142D02*
X130636723Y-131869523D01*
X130636723Y-131869523D02*
X130731961Y-131821904D01*
X130731961Y-131821904D02*
X130827200Y-131726666D01*
X130827200Y-131726666D02*
X130874819Y-131583809D01*
X130874819Y-131583809D02*
X130874819Y-131345714D01*
X130874819Y-132869523D02*
X130874819Y-132298095D01*
X130874819Y-132583809D02*
X129874819Y-132583809D01*
X129874819Y-132583809D02*
X130017676Y-132488571D01*
X130017676Y-132488571D02*
X130112914Y-132393333D01*
X130112914Y-132393333D02*
X130160533Y-132298095D01*
X130303390Y-133440952D02*
X130255771Y-133345714D01*
X130255771Y-133345714D02*
X130208152Y-133298095D01*
X130208152Y-133298095D02*
X130112914Y-133250476D01*
X130112914Y-133250476D02*
X130065295Y-133250476D01*
X130065295Y-133250476D02*
X129970057Y-133298095D01*
X129970057Y-133298095D02*
X129922438Y-133345714D01*
X129922438Y-133345714D02*
X129874819Y-133440952D01*
X129874819Y-133440952D02*
X129874819Y-133631428D01*
X129874819Y-133631428D02*
X129922438Y-133726666D01*
X129922438Y-133726666D02*
X129970057Y-133774285D01*
X129970057Y-133774285D02*
X130065295Y-133821904D01*
X130065295Y-133821904D02*
X130112914Y-133821904D01*
X130112914Y-133821904D02*
X130208152Y-133774285D01*
X130208152Y-133774285D02*
X130255771Y-133726666D01*
X130255771Y-133726666D02*
X130303390Y-133631428D01*
X130303390Y-133631428D02*
X130303390Y-133440952D01*
X130303390Y-133440952D02*
X130351009Y-133345714D01*
X130351009Y-133345714D02*
X130398628Y-133298095D01*
X130398628Y-133298095D02*
X130493866Y-133250476D01*
X130493866Y-133250476D02*
X130684342Y-133250476D01*
X130684342Y-133250476D02*
X130779580Y-133298095D01*
X130779580Y-133298095D02*
X130827200Y-133345714D01*
X130827200Y-133345714D02*
X130874819Y-133440952D01*
X130874819Y-133440952D02*
X130874819Y-133631428D01*
X130874819Y-133631428D02*
X130827200Y-133726666D01*
X130827200Y-133726666D02*
X130779580Y-133774285D01*
X130779580Y-133774285D02*
X130684342Y-133821904D01*
X130684342Y-133821904D02*
X130493866Y-133821904D01*
X130493866Y-133821904D02*
X130398628Y-133774285D01*
X130398628Y-133774285D02*
X130351009Y-133726666D01*
X130351009Y-133726666D02*
X130303390Y-133631428D01*
X130554819Y-136108095D02*
X129554819Y-136108095D01*
X130554819Y-136679523D02*
X129983390Y-136250952D01*
X129554819Y-136679523D02*
X130126247Y-136108095D01*
X149924819Y-112085714D02*
X148924819Y-112085714D01*
X148924819Y-112085714D02*
X148924819Y-112323809D01*
X148924819Y-112323809D02*
X148972438Y-112466666D01*
X148972438Y-112466666D02*
X149067676Y-112561904D01*
X149067676Y-112561904D02*
X149162914Y-112609523D01*
X149162914Y-112609523D02*
X149353390Y-112657142D01*
X149353390Y-112657142D02*
X149496247Y-112657142D01*
X149496247Y-112657142D02*
X149686723Y-112609523D01*
X149686723Y-112609523D02*
X149781961Y-112561904D01*
X149781961Y-112561904D02*
X149877200Y-112466666D01*
X149877200Y-112466666D02*
X149924819Y-112323809D01*
X149924819Y-112323809D02*
X149924819Y-112085714D01*
X149924819Y-113609523D02*
X149924819Y-113038095D01*
X149924819Y-113323809D02*
X148924819Y-113323809D01*
X148924819Y-113323809D02*
X149067676Y-113228571D01*
X149067676Y-113228571D02*
X149162914Y-113133333D01*
X149162914Y-113133333D02*
X149210533Y-113038095D01*
X148924819Y-114466666D02*
X148924819Y-114276190D01*
X148924819Y-114276190D02*
X148972438Y-114180952D01*
X148972438Y-114180952D02*
X149020057Y-114133333D01*
X149020057Y-114133333D02*
X149162914Y-114038095D01*
X149162914Y-114038095D02*
X149353390Y-113990476D01*
X149353390Y-113990476D02*
X149734342Y-113990476D01*
X149734342Y-113990476D02*
X149829580Y-114038095D01*
X149829580Y-114038095D02*
X149877200Y-114085714D01*
X149877200Y-114085714D02*
X149924819Y-114180952D01*
X149924819Y-114180952D02*
X149924819Y-114371428D01*
X149924819Y-114371428D02*
X149877200Y-114466666D01*
X149877200Y-114466666D02*
X149829580Y-114514285D01*
X149829580Y-114514285D02*
X149734342Y-114561904D01*
X149734342Y-114561904D02*
X149496247Y-114561904D01*
X149496247Y-114561904D02*
X149401009Y-114514285D01*
X149401009Y-114514285D02*
X149353390Y-114466666D01*
X149353390Y-114466666D02*
X149305771Y-114371428D01*
X149305771Y-114371428D02*
X149305771Y-114180952D01*
X149305771Y-114180952D02*
X149353390Y-114085714D01*
X149353390Y-114085714D02*
X149401009Y-114038095D01*
X149401009Y-114038095D02*
X149496247Y-113990476D01*
X149604819Y-116848095D02*
X148604819Y-116848095D01*
X149604819Y-117419523D02*
X149033390Y-116990952D01*
X148604819Y-117419523D02*
X149176247Y-116848095D01*
X110324819Y-131335714D02*
X109324819Y-131335714D01*
X109324819Y-131335714D02*
X109324819Y-131573809D01*
X109324819Y-131573809D02*
X109372438Y-131716666D01*
X109372438Y-131716666D02*
X109467676Y-131811904D01*
X109467676Y-131811904D02*
X109562914Y-131859523D01*
X109562914Y-131859523D02*
X109753390Y-131907142D01*
X109753390Y-131907142D02*
X109896247Y-131907142D01*
X109896247Y-131907142D02*
X110086723Y-131859523D01*
X110086723Y-131859523D02*
X110181961Y-131811904D01*
X110181961Y-131811904D02*
X110277200Y-131716666D01*
X110277200Y-131716666D02*
X110324819Y-131573809D01*
X110324819Y-131573809D02*
X110324819Y-131335714D01*
X110324819Y-132859523D02*
X110324819Y-132288095D01*
X110324819Y-132573809D02*
X109324819Y-132573809D01*
X109324819Y-132573809D02*
X109467676Y-132478571D01*
X109467676Y-132478571D02*
X109562914Y-132383333D01*
X109562914Y-132383333D02*
X109610533Y-132288095D01*
X109324819Y-133192857D02*
X109324819Y-133859523D01*
X109324819Y-133859523D02*
X110324819Y-133430952D01*
X110004819Y-136098095D02*
X109004819Y-136098095D01*
X110004819Y-136669523D02*
X109433390Y-136240952D01*
X109004819Y-136669523D02*
X109576247Y-136098095D01*
X149624819Y-76385714D02*
X148624819Y-76385714D01*
X148624819Y-76385714D02*
X148624819Y-76623809D01*
X148624819Y-76623809D02*
X148672438Y-76766666D01*
X148672438Y-76766666D02*
X148767676Y-76861904D01*
X148767676Y-76861904D02*
X148862914Y-76909523D01*
X148862914Y-76909523D02*
X149053390Y-76957142D01*
X149053390Y-76957142D02*
X149196247Y-76957142D01*
X149196247Y-76957142D02*
X149386723Y-76909523D01*
X149386723Y-76909523D02*
X149481961Y-76861904D01*
X149481961Y-76861904D02*
X149577200Y-76766666D01*
X149577200Y-76766666D02*
X149624819Y-76623809D01*
X149624819Y-76623809D02*
X149624819Y-76385714D01*
X148720057Y-77338095D02*
X148672438Y-77385714D01*
X148672438Y-77385714D02*
X148624819Y-77480952D01*
X148624819Y-77480952D02*
X148624819Y-77719047D01*
X148624819Y-77719047D02*
X148672438Y-77814285D01*
X148672438Y-77814285D02*
X148720057Y-77861904D01*
X148720057Y-77861904D02*
X148815295Y-77909523D01*
X148815295Y-77909523D02*
X148910533Y-77909523D01*
X148910533Y-77909523D02*
X149053390Y-77861904D01*
X149053390Y-77861904D02*
X149624819Y-77290476D01*
X149624819Y-77290476D02*
X149624819Y-77909523D01*
X148624819Y-78528571D02*
X148624819Y-78623809D01*
X148624819Y-78623809D02*
X148672438Y-78719047D01*
X148672438Y-78719047D02*
X148720057Y-78766666D01*
X148720057Y-78766666D02*
X148815295Y-78814285D01*
X148815295Y-78814285D02*
X149005771Y-78861904D01*
X149005771Y-78861904D02*
X149243866Y-78861904D01*
X149243866Y-78861904D02*
X149434342Y-78814285D01*
X149434342Y-78814285D02*
X149529580Y-78766666D01*
X149529580Y-78766666D02*
X149577200Y-78719047D01*
X149577200Y-78719047D02*
X149624819Y-78623809D01*
X149624819Y-78623809D02*
X149624819Y-78528571D01*
X149624819Y-78528571D02*
X149577200Y-78433333D01*
X149577200Y-78433333D02*
X149529580Y-78385714D01*
X149529580Y-78385714D02*
X149434342Y-78338095D01*
X149434342Y-78338095D02*
X149243866Y-78290476D01*
X149243866Y-78290476D02*
X149005771Y-78290476D01*
X149005771Y-78290476D02*
X148815295Y-78338095D01*
X148815295Y-78338095D02*
X148720057Y-78385714D01*
X148720057Y-78385714D02*
X148672438Y-78433333D01*
X148672438Y-78433333D02*
X148624819Y-78528571D01*
X149304819Y-81148095D02*
X148304819Y-81148095D01*
X149304819Y-81719523D02*
X148733390Y-81290952D01*
X148304819Y-81719523D02*
X148876247Y-81148095D01*
X150716666Y-100959580D02*
X150764285Y-101007200D01*
X150764285Y-101007200D02*
X150907142Y-101054819D01*
X150907142Y-101054819D02*
X151002380Y-101054819D01*
X151002380Y-101054819D02*
X151145237Y-101007200D01*
X151145237Y-101007200D02*
X151240475Y-100911961D01*
X151240475Y-100911961D02*
X151288094Y-100816723D01*
X151288094Y-100816723D02*
X151335713Y-100626247D01*
X151335713Y-100626247D02*
X151335713Y-100483390D01*
X151335713Y-100483390D02*
X151288094Y-100292914D01*
X151288094Y-100292914D02*
X151240475Y-100197676D01*
X151240475Y-100197676D02*
X151145237Y-100102438D01*
X151145237Y-100102438D02*
X151002380Y-100054819D01*
X151002380Y-100054819D02*
X150907142Y-100054819D01*
X150907142Y-100054819D02*
X150764285Y-100102438D01*
X150764285Y-100102438D02*
X150716666Y-100150057D01*
X149764285Y-101054819D02*
X150335713Y-101054819D01*
X150049999Y-101054819D02*
X150049999Y-100054819D01*
X150049999Y-100054819D02*
X150145237Y-100197676D01*
X150145237Y-100197676D02*
X150240475Y-100292914D01*
X150240475Y-100292914D02*
X150335713Y-100340533D01*
X110474819Y-92685714D02*
X109474819Y-92685714D01*
X109474819Y-92685714D02*
X109474819Y-92923809D01*
X109474819Y-92923809D02*
X109522438Y-93066666D01*
X109522438Y-93066666D02*
X109617676Y-93161904D01*
X109617676Y-93161904D02*
X109712914Y-93209523D01*
X109712914Y-93209523D02*
X109903390Y-93257142D01*
X109903390Y-93257142D02*
X110046247Y-93257142D01*
X110046247Y-93257142D02*
X110236723Y-93209523D01*
X110236723Y-93209523D02*
X110331961Y-93161904D01*
X110331961Y-93161904D02*
X110427200Y-93066666D01*
X110427200Y-93066666D02*
X110474819Y-92923809D01*
X110474819Y-92923809D02*
X110474819Y-92685714D01*
X110474819Y-94209523D02*
X110474819Y-93638095D01*
X110474819Y-93923809D02*
X109474819Y-93923809D01*
X109474819Y-93923809D02*
X109617676Y-93828571D01*
X109617676Y-93828571D02*
X109712914Y-93733333D01*
X109712914Y-93733333D02*
X109760533Y-93638095D01*
X110474819Y-95161904D02*
X110474819Y-94590476D01*
X110474819Y-94876190D02*
X109474819Y-94876190D01*
X109474819Y-94876190D02*
X109617676Y-94780952D01*
X109617676Y-94780952D02*
X109712914Y-94685714D01*
X109712914Y-94685714D02*
X109760533Y-94590476D01*
X110154819Y-97448095D02*
X109154819Y-97448095D01*
X110154819Y-98019523D02*
X109583390Y-97590952D01*
X109154819Y-98019523D02*
X109726247Y-97448095D01*
X151416666Y-122909580D02*
X151464285Y-122957200D01*
X151464285Y-122957200D02*
X151607142Y-123004819D01*
X151607142Y-123004819D02*
X151702380Y-123004819D01*
X151702380Y-123004819D02*
X151845237Y-122957200D01*
X151845237Y-122957200D02*
X151940475Y-122861961D01*
X151940475Y-122861961D02*
X151988094Y-122766723D01*
X151988094Y-122766723D02*
X152035713Y-122576247D01*
X152035713Y-122576247D02*
X152035713Y-122433390D01*
X152035713Y-122433390D02*
X151988094Y-122242914D01*
X151988094Y-122242914D02*
X151940475Y-122147676D01*
X151940475Y-122147676D02*
X151845237Y-122052438D01*
X151845237Y-122052438D02*
X151702380Y-122004819D01*
X151702380Y-122004819D02*
X151607142Y-122004819D01*
X151607142Y-122004819D02*
X151464285Y-122052438D01*
X151464285Y-122052438D02*
X151416666Y-122100057D01*
X150559523Y-122004819D02*
X150749999Y-122004819D01*
X150749999Y-122004819D02*
X150845237Y-122052438D01*
X150845237Y-122052438D02*
X150892856Y-122100057D01*
X150892856Y-122100057D02*
X150988094Y-122242914D01*
X150988094Y-122242914D02*
X151035713Y-122433390D01*
X151035713Y-122433390D02*
X151035713Y-122814342D01*
X151035713Y-122814342D02*
X150988094Y-122909580D01*
X150988094Y-122909580D02*
X150940475Y-122957200D01*
X150940475Y-122957200D02*
X150845237Y-123004819D01*
X150845237Y-123004819D02*
X150654761Y-123004819D01*
X150654761Y-123004819D02*
X150559523Y-122957200D01*
X150559523Y-122957200D02*
X150511904Y-122909580D01*
X150511904Y-122909580D02*
X150464285Y-122814342D01*
X150464285Y-122814342D02*
X150464285Y-122576247D01*
X150464285Y-122576247D02*
X150511904Y-122481009D01*
X150511904Y-122481009D02*
X150559523Y-122433390D01*
X150559523Y-122433390D02*
X150654761Y-122385771D01*
X150654761Y-122385771D02*
X150845237Y-122385771D01*
X150845237Y-122385771D02*
X150940475Y-122433390D01*
X150940475Y-122433390D02*
X150988094Y-122481009D01*
X150988094Y-122481009D02*
X151035713Y-122576247D01*
X113266666Y-120079580D02*
X113314285Y-120127200D01*
X113314285Y-120127200D02*
X113457142Y-120174819D01*
X113457142Y-120174819D02*
X113552380Y-120174819D01*
X113552380Y-120174819D02*
X113695237Y-120127200D01*
X113695237Y-120127200D02*
X113790475Y-120031961D01*
X113790475Y-120031961D02*
X113838094Y-119936723D01*
X113838094Y-119936723D02*
X113885713Y-119746247D01*
X113885713Y-119746247D02*
X113885713Y-119603390D01*
X113885713Y-119603390D02*
X113838094Y-119412914D01*
X113838094Y-119412914D02*
X113790475Y-119317676D01*
X113790475Y-119317676D02*
X113695237Y-119222438D01*
X113695237Y-119222438D02*
X113552380Y-119174819D01*
X113552380Y-119174819D02*
X113457142Y-119174819D01*
X113457142Y-119174819D02*
X113314285Y-119222438D01*
X113314285Y-119222438D02*
X113266666Y-119270057D01*
X112409523Y-119508152D02*
X112409523Y-120174819D01*
X112647618Y-119127200D02*
X112885713Y-119841485D01*
X112885713Y-119841485D02*
X112266666Y-119841485D01*
D11*
%TO.C,D4*%
X133875998Y-120800684D02*
X133875998Y-119900684D01*
X134775998Y-119900684D01*
X133875998Y-120800684D01*
G36*
X133875998Y-120800684D02*
G01*
X133875998Y-119900684D01*
X134775998Y-119900684D01*
X133875998Y-120800684D01*
G37*
%TO.C,D5*%
X122588501Y-123692158D02*
X121688501Y-123692158D01*
X122588501Y-122792158D01*
X122588501Y-123692158D01*
G36*
X122588501Y-123692158D02*
G01*
X121688501Y-123692158D01*
X122588501Y-122792158D01*
X122588501Y-123692158D01*
G37*
%TO.C,D6*%
X160826000Y-123645000D02*
X159926000Y-123645000D01*
X160826000Y-122745000D01*
X160826000Y-123645000D01*
G36*
X160826000Y-123645000D02*
G01*
X159926000Y-123645000D01*
X160826000Y-122745000D01*
X160826000Y-123645000D01*
G37*
%TO.C,D3*%
X123126000Y-104395000D02*
X122226000Y-104395000D01*
X123126000Y-103495000D01*
X123126000Y-104395000D01*
G36*
X123126000Y-104395000D02*
G01*
X122226000Y-104395000D01*
X123126000Y-103495000D01*
X123126000Y-104395000D01*
G37*
%TO.C,D1*%
X160738500Y-104395000D02*
X159838500Y-104395000D01*
X160738500Y-103495000D01*
X160738500Y-104395000D01*
G36*
X160738500Y-104395000D02*
G01*
X159838500Y-104395000D01*
X160738500Y-103495000D01*
X160738500Y-104395000D01*
G37*
%TO.C,D2*%
X141488501Y-104442158D02*
X140588501Y-104442158D01*
X141488501Y-103542158D01*
X141488501Y-104442158D01*
G36*
X141488501Y-104442158D02*
G01*
X140588501Y-104442158D01*
X141488501Y-103542158D01*
X141488501Y-104442158D01*
G37*
D12*
%TO.C,C2*%
X132040580Y-101340000D02*
X131759420Y-101340000D01*
X132040580Y-102360000D02*
X131759420Y-102360000D01*
%TO.C,C5*%
X143209420Y-122040000D02*
X143490580Y-122040000D01*
X143209420Y-123060000D02*
X143490580Y-123060000D01*
%TO.C,C3*%
X113990580Y-101240000D02*
X113709420Y-101240000D01*
X113990580Y-102260000D02*
X113709420Y-102260000D01*
%TO.C,D14*%
X127130000Y-111280000D02*
X129370000Y-111280000D01*
X127130000Y-115520000D02*
X127130000Y-111280000D01*
X128250000Y-110630000D02*
X128250000Y-111280000D01*
X128250000Y-116170000D02*
X128250000Y-115520000D01*
X129370000Y-111280000D02*
X129370000Y-115520000D01*
X129370000Y-114680000D02*
X127130000Y-114680000D01*
X129370000Y-114800000D02*
X127130000Y-114800000D01*
X129370000Y-114920000D02*
X127130000Y-114920000D01*
X129370000Y-115520000D02*
X127130000Y-115520000D01*
%TO.C,D13*%
X127230000Y-92190000D02*
X129470000Y-92190000D01*
X127230000Y-96430000D02*
X127230000Y-92190000D01*
X128350000Y-91540000D02*
X128350000Y-92190000D01*
X128350000Y-97080000D02*
X128350000Y-96430000D01*
X129470000Y-92190000D02*
X129470000Y-96430000D01*
X129470000Y-95590000D02*
X127230000Y-95590000D01*
X129470000Y-95710000D02*
X127230000Y-95710000D01*
X129470000Y-95830000D02*
X127230000Y-95830000D01*
X129470000Y-96430000D02*
X127230000Y-96430000D01*
%TO.C,D12*%
X106680000Y-110980000D02*
X108920000Y-110980000D01*
X106680000Y-115220000D02*
X106680000Y-110980000D01*
X107800000Y-110330000D02*
X107800000Y-110980000D01*
X107800000Y-115870000D02*
X107800000Y-115220000D01*
X108920000Y-110980000D02*
X108920000Y-115220000D01*
X108920000Y-114380000D02*
X106680000Y-114380000D01*
X108920000Y-114500000D02*
X106680000Y-114500000D01*
X108920000Y-114620000D02*
X106680000Y-114620000D01*
X108920000Y-115220000D02*
X106680000Y-115220000D01*
%TO.C,D15*%
X145930000Y-86430000D02*
X148170000Y-86430000D01*
X145930000Y-87030000D02*
X148170000Y-87030000D01*
X145930000Y-87150000D02*
X148170000Y-87150000D01*
X145930000Y-87270000D02*
X148170000Y-87270000D01*
X145930000Y-90670000D02*
X145930000Y-86430000D01*
X147050000Y-85780000D02*
X147050000Y-86430000D01*
X147050000Y-91320000D02*
X147050000Y-90670000D01*
X148170000Y-86430000D02*
X148170000Y-90670000D01*
X148170000Y-90670000D02*
X145930000Y-90670000D01*
%TO.C,D19*%
X146280000Y-130290000D02*
X148520000Y-130290000D01*
X146280000Y-134530000D02*
X146280000Y-130290000D01*
X147400000Y-129640000D02*
X147400000Y-130290000D01*
X147400000Y-135180000D02*
X147400000Y-134530000D01*
X148520000Y-130290000D02*
X148520000Y-134530000D01*
X148520000Y-133690000D02*
X146280000Y-133690000D01*
X148520000Y-133810000D02*
X146280000Y-133810000D01*
X148520000Y-133930000D02*
X146280000Y-133930000D01*
X148520000Y-134530000D02*
X146280000Y-134530000D01*
%TO.C,D18*%
X127180000Y-130440000D02*
X129420000Y-130440000D01*
X127180000Y-134680000D02*
X127180000Y-130440000D01*
X128300000Y-129790000D02*
X128300000Y-130440000D01*
X128300000Y-135330000D02*
X128300000Y-134680000D01*
X129420000Y-130440000D02*
X129420000Y-134680000D01*
X129420000Y-133840000D02*
X127180000Y-133840000D01*
X129420000Y-133960000D02*
X127180000Y-133960000D01*
X129420000Y-134080000D02*
X127180000Y-134080000D01*
X129420000Y-134680000D02*
X127180000Y-134680000D01*
%TO.C,D16*%
X146230000Y-111180000D02*
X148470000Y-111180000D01*
X146230000Y-115420000D02*
X146230000Y-111180000D01*
X147350000Y-110530000D02*
X147350000Y-111180000D01*
X147350000Y-116070000D02*
X147350000Y-115420000D01*
X148470000Y-111180000D02*
X148470000Y-115420000D01*
X148470000Y-114580000D02*
X146230000Y-114580000D01*
X148470000Y-114700000D02*
X146230000Y-114700000D01*
X148470000Y-114820000D02*
X146230000Y-114820000D01*
X148470000Y-115420000D02*
X146230000Y-115420000D01*
%TO.C,D17*%
X106630000Y-130430000D02*
X108870000Y-130430000D01*
X106630000Y-134670000D02*
X106630000Y-130430000D01*
X107750000Y-129780000D02*
X107750000Y-130430000D01*
X107750000Y-135320000D02*
X107750000Y-134670000D01*
X108870000Y-130430000D02*
X108870000Y-134670000D01*
X108870000Y-133830000D02*
X106630000Y-133830000D01*
X108870000Y-133950000D02*
X106630000Y-133950000D01*
X108870000Y-134070000D02*
X106630000Y-134070000D01*
X108870000Y-134670000D02*
X106630000Y-134670000D01*
%TO.C,D20*%
X145930000Y-75480000D02*
X148170000Y-75480000D01*
X145930000Y-79720000D02*
X145930000Y-75480000D01*
X147050000Y-74830000D02*
X147050000Y-75480000D01*
X147050000Y-80370000D02*
X147050000Y-79720000D01*
X148170000Y-75480000D02*
X148170000Y-79720000D01*
X148170000Y-78880000D02*
X145930000Y-78880000D01*
X148170000Y-79000000D02*
X145930000Y-79000000D01*
X148170000Y-79120000D02*
X145930000Y-79120000D01*
X148170000Y-79720000D02*
X145930000Y-79720000D01*
%TO.C,C1*%
X151290580Y-101390000D02*
X151009420Y-101390000D01*
X151290580Y-102410000D02*
X151009420Y-102410000D01*
%TO.C,D11*%
X106780000Y-91780000D02*
X109020000Y-91780000D01*
X106780000Y-96020000D02*
X106780000Y-91780000D01*
X107900000Y-91130000D02*
X107900000Y-91780000D01*
X107900000Y-96670000D02*
X107900000Y-96020000D01*
X109020000Y-91780000D02*
X109020000Y-96020000D01*
X109020000Y-95180000D02*
X106780000Y-95180000D01*
X109020000Y-95300000D02*
X106780000Y-95300000D01*
X109020000Y-95420000D02*
X106780000Y-95420000D01*
X109020000Y-96020000D02*
X106780000Y-96020000D01*
%TO.C,C6*%
X151390580Y-120440000D02*
X151109420Y-120440000D01*
X151390580Y-121460000D02*
X151109420Y-121460000D01*
%TO.C,C4*%
X113240580Y-120640000D02*
X112959420Y-120640000D01*
X113240580Y-121660000D02*
X112959420Y-121660000D01*
%TD*%
M02*
